<svg width="24" height="25" viewBox="0 0 24 25" fill="none" xmlns="http://www.w3.org/2000/svg">
<g clip-path="url(#clip0_2_127)">
<path fill-rule="evenodd" clip-rule="evenodd" d="M7.5 9.85938C9.77817 9.85938 11.625 8.01255 11.625 5.73438C11.625 3.4562 9.77817 1.60938 7.5 1.60938C5.22183 1.60938 3.375 3.4562 3.375 5.73438C3.375 8.01255 5.22183 9.85938 7.5 9.85938Z" stroke="black" stroke-width="1.5" stroke-linecap="round" stroke-linejoin="round"/>
<path d="M12.21 13.2845C10.2696 11.385 7.3791 10.8347 4.87645 11.8884C2.37381 12.9421 0.747385 15.3941 0.750003 18.1095" stroke="black" stroke-width="1.5" stroke-linecap="round" stroke-linejoin="round"/>
<path d="M21.75 16.6094H15.75C14.9216 16.6094 14.25 17.2809 14.25 18.1094V22.6094C14.25 23.4378 14.9216 24.1094 15.75 24.1094H21.75C22.5784 24.1094 23.25 23.4378 23.25 22.6094V18.1094C23.25 17.2809 22.5784 16.6094 21.75 16.6094Z" stroke="black" stroke-width="1.5" stroke-linecap="round" stroke-linejoin="round"/>
<path fill-rule="evenodd" clip-rule="evenodd" d="M18.75 12.1094C17.0931 12.1094 15.75 13.4525 15.75 15.1094V16.6094H21.75V15.1094C21.75 13.4525 20.4069 12.1094 18.75 12.1094Z" stroke="black" stroke-width="1.5" stroke-linecap="round" stroke-linejoin="round"/>
<path d="M18.75 20.0137C18.5429 20.0137 18.375 20.1815 18.375 20.3887C18.375 20.5958 18.5429 20.7637 18.75 20.7637C18.9571 20.7637 19.125 20.5958 19.125 20.3887C19.1253 20.2891 19.0858 20.1936 19.0155 20.1232C18.9451 20.0528 18.8495 20.0134 18.75 20.0137Z" stroke="black" stroke-width="1.5" stroke-linecap="round" stroke-linejoin="round"/>
</g>
<defs>
<clipPath id="clip0_2_127">
<rect width="24" height="24" fill="white" transform="translate(0 0.859375)"/>
</clipPath>
</defs>
</svg>
